<mxfile host="drawio-plugin" modified="2023-01-29T18:10:36.457Z" agent="5.0 (Macintosh; Intel Mac OS X 10_15_7) AppleWebKit/537.36 (KHTML, like Gecko) Chrome/104.0.5112.102 Safari/537.36" etag="O_Kz0I5vpMhLnH-oPWYa" version="20.5.3" type="embed" pages="2"><diagram id="P_t-LMxgcXSMyucOmexs" name="페이지-1"><mxGraphModel dx="935" dy="1119" grid="1" gridSize="10" guides="1" tooltips="1" connect="1" arrows="1" fold="1" page="1" pageScale="1" pageWidth="1169" pageHeight="827" math="0" shadow="0"><root><mxCell id="0"/><mxCell id="1" parent="0"/><mxCell id="FR_30N10Fp2oNRfLbZ71-26" value="" style="rounded=0;whiteSpace=wrap;html=1;fillColor=#d5e8d4;strokeColor=none;" parent="1" vertex="1"><mxGeometry x="30" y="420" width="1070" height="180" as="geometry"/></mxCell><mxCell id="FR_30N10Fp2oNRfLbZ71-24" value="" style="rounded=0;whiteSpace=wrap;html=1;fillColor=#dae8fc;strokeColor=none;" parent="1" vertex="1"><mxGeometry x="30" y="110" width="1070" height="310" as="geometry"/></mxCell><mxCell id="FR_30N10Fp2oNRfLbZ71-11" value="" style="edgeStyle=orthogonalEdgeStyle;rounded=0;orthogonalLoop=1;jettySize=auto;html=1;endArrow=open;endFill=0;startArrow=diamondThin;startFill=1;endSize=10;startSize=10;" parent="1" source="FR_30N10Fp2oNRfLbZ71-1" target="FR_30N10Fp2oNRfLbZ71-3" edge="1"><mxGeometry relative="1" as="geometry"/></mxCell><mxCell id="FR_30N10Fp2oNRfLbZ71-1" value="TestRestTemplate" style="whiteSpace=wrap;html=1;fontStyle=0;fontSize=15;" parent="1" vertex="1"><mxGeometry x="55" y="390" width="145" height="60" as="geometry"/></mxCell><mxCell id="FR_30N10Fp2oNRfLbZ71-12" value="" style="edgeStyle=orthogonalEdgeStyle;rounded=0;orthogonalLoop=1;jettySize=auto;html=1;endArrow=open;endFill=0;startArrow=diamondThin;startFill=1;endSize=10;startSize=10;" parent="1" source="FR_30N10Fp2oNRfLbZ71-3" target="FR_30N10Fp2oNRfLbZ71-5" edge="1"><mxGeometry relative="1" as="geometry"/></mxCell><mxCell id="FR_30N10Fp2oNRfLbZ71-3" value="RestTemplate" style="whiteSpace=wrap;html=1;fontStyle=0;fontSize=15;" parent="1" vertex="1"><mxGeometry x="250" y="390" width="140" height="60" as="geometry"/></mxCell><mxCell id="FR_30N10Fp2oNRfLbZ71-8" value="" style="edgeStyle=orthogonalEdgeStyle;rounded=0;orthogonalLoop=1;jettySize=auto;html=1;endArrow=block;endFill=0;endSize=10;startSize=10;" parent="1" source="FR_30N10Fp2oNRfLbZ71-4" target="FR_30N10Fp2oNRfLbZ71-7" edge="1"><mxGeometry relative="1" as="geometry"/></mxCell><mxCell id="FR_30N10Fp2oNRfLbZ71-10" value="" style="edgeStyle=orthogonalEdgeStyle;rounded=0;orthogonalLoop=1;jettySize=auto;html=1;dashed=1;endArrow=block;endFill=0;endSize=10;startSize=10;exitX=0;exitY=0.5;exitDx=0;exitDy=0;" parent="1" source="FR_30N10Fp2oNRfLbZ71-4" target="FR_30N10Fp2oNRfLbZ71-5" edge="1"><mxGeometry relative="1" as="geometry"/></mxCell><mxCell id="FR_30N10Fp2oNRfLbZ71-4" value="LocalHostUriTemplateHandler" style="whiteSpace=wrap;html=1;fontStyle=0;fontSize=15;" parent="1" vertex="1"><mxGeometry x="585" y="260" width="215" height="60" as="geometry"/></mxCell><mxCell id="FR_30N10Fp2oNRfLbZ71-5" value="UriTemplateHandler" style="whiteSpace=wrap;html=1;fontStyle=0;fontSize=15;" parent="1" vertex="1"><mxGeometry x="445" y="390" width="157.5" height="60" as="geometry"/></mxCell><mxCell id="FR_30N10Fp2oNRfLbZ71-23" style="edgeStyle=orthogonalEdgeStyle;rounded=0;orthogonalLoop=1;jettySize=auto;html=1;entryX=0.5;entryY=1;entryDx=0;entryDy=0;endArrow=block;endFill=0;dashed=1;endSize=10;startSize=10;" parent="1" source="FR_30N10Fp2oNRfLbZ71-6" target="FR_30N10Fp2oNRfLbZ71-13" edge="1"><mxGeometry relative="1" as="geometry"/></mxCell><mxCell id="FR_30N10Fp2oNRfLbZ71-6" value="DefaultUriBuilderFactory" style="whiteSpace=wrap;html=1;fontStyle=0;fontSize=15;" parent="1" vertex="1"><mxGeometry x="840" y="260" width="180" height="60" as="geometry"/></mxCell><mxCell id="FR_30N10Fp2oNRfLbZ71-14" style="edgeStyle=orthogonalEdgeStyle;rounded=0;orthogonalLoop=1;jettySize=auto;html=1;entryX=0;entryY=0.5;entryDx=0;entryDy=0;endArrow=open;endFill=0;startArrow=diamondThin;startFill=1;endSize=10;startSize=10;" parent="1" source="FR_30N10Fp2oNRfLbZ71-7" target="FR_30N10Fp2oNRfLbZ71-13" edge="1"><mxGeometry relative="1" as="geometry"/></mxCell><mxCell id="FR_30N10Fp2oNRfLbZ71-7" value="RootUriTemplateHandler" style="whiteSpace=wrap;html=1;fontStyle=0;fontSize=15;" parent="1" vertex="1"><mxGeometry x="585" y="140" width="215" height="60" as="geometry"/></mxCell><mxCell id="FR_30N10Fp2oNRfLbZ71-13" value="UriTemplateHandler" style="whiteSpace=wrap;html=1;fontStyle=0;fontSize=15;" parent="1" vertex="1"><mxGeometry x="840" y="140" width="180" height="60" as="geometry"/></mxCell><mxCell id="FR_30N10Fp2oNRfLbZ71-22" style="edgeStyle=orthogonalEdgeStyle;rounded=0;orthogonalLoop=1;jettySize=auto;html=1;entryX=0.5;entryY=1;entryDx=0;entryDy=0;dashed=1;endArrow=block;endFill=0;endSize=10;startSize=10;exitX=0;exitY=0.5;exitDx=0;exitDy=0;" parent="1" source="HOtm4lZDaCUi-0i4BMBv-1" target="FR_30N10Fp2oNRfLbZ71-5" edge="1"><mxGeometry relative="1" as="geometry"><mxPoint x="585" y="540" as="sourcePoint"/></mxGeometry></mxCell><mxCell id="FR_30N10Fp2oNRfLbZ71-28" value="new TestRestTemplate" style="text;html=1;align=center;verticalAlign=middle;whiteSpace=wrap;rounded=0;strokeColor=none;fillColor=default;fontStyle=1;fontColor=#95A395;" parent="1" vertex="1"><mxGeometry x="890" y="430" width="200" height="30" as="geometry"/></mxCell><mxCell id="FR_30N10Fp2oNRfLbZ71-27" value="@Autowired TestRestTemplate" style="text;html=1;align=center;verticalAlign=middle;whiteSpace=wrap;rounded=0;fillColor=default;fontStyle=1;fontColor=#3333FF;" parent="1" vertex="1"><mxGeometry x="890" y="384" width="200" height="30" as="geometry"/></mxCell><mxCell id="HOtm4lZDaCUi-0i4BMBv-1" value="DefaultUriBuilderFactory" style="whiteSpace=wrap;html=1;fontStyle=0;fontSize=15;" parent="1" vertex="1"><mxGeometry x="602.5" y="510" width="180" height="60" as="geometry"/></mxCell></root></mxGraphModel></diagram><diagram id="RtvQqJHMsAzKq8PSy78A" name="페이지-2"><mxGraphModel dx="935" dy="1119" grid="1" gridSize="10" guides="1" tooltips="1" connect="1" arrows="1" fold="1" page="1" pageScale="1" pageWidth="1169" pageHeight="827" math="0" shadow="0"><root><mxCell id="0"/><mxCell id="1" parent="0"/><mxCell id="UoZ7RjWrfCvB0qGUQmzl-1" value="" style="rounded=0;whiteSpace=wrap;html=1;fontFamily=Times New Roman;fontSize=35;fillColor=#f9f7ed;strokeColor=none;" parent="1" vertex="1"><mxGeometry x="270" y="220" width="530" height="170" as="geometry"/></mxCell><mxCell id="ki-vRZrCrnpaEfmtKaSS-1" value="&lt;font color=&quot;#95a395&quot;&gt;new TestRestTemplate&lt;/font&gt;" style="text;html=1;strokeColor=none;fillColor=none;align=center;verticalAlign=middle;whiteSpace=wrap;rounded=0;fontSize=25;" parent="1" vertex="1"><mxGeometry x="510" y="340" width="290" height="30" as="geometry"/></mxCell><mxCell id="ki-vRZrCrnpaEfmtKaSS-2" value="&lt;font color=&quot;#3333ff&quot;&gt;@Autowired TestRestTemplate&lt;/font&gt;" style="text;html=1;strokeColor=none;fillColor=none;align=center;verticalAlign=middle;whiteSpace=wrap;rounded=0;fontSize=25;" parent="1" vertex="1"><mxGeometry x="270" y="240" width="380" height="30" as="geometry"/></mxCell><mxCell id="ki-vRZrCrnpaEfmtKaSS-3" value="VS" style="text;html=1;strokeColor=none;fillColor=none;align=center;verticalAlign=middle;whiteSpace=wrap;rounded=0;fontSize=35;horizontal=1;fontStyle=1" parent="1" vertex="1"><mxGeometry x="420" y="290" width="210" height="30" as="geometry"/></mxCell></root></mxGraphModel></diagram></mxfile>